PathFileType	4	(X/Y/Z)	C:/Users/opensim2020/Desktop/walking_exp_matlab/subject02_walking15_straight_02.trc	
DataRate	CameraRate	NumFrames	NumMarkers	Units	OrigDataRate	OrigDataStartFrame	OrigNumFrames	
100.00	100.00	4	42	mm	100.00	958	142	
Frame#	Time	LFHD			RFHD			LBHD			RBHD			C7			T10			CLAV			STRN			RBAK			LSHO			LUPA			LELB			LFRM			LWRA			LWRB			LFIN			RSHO			RUPA			RELB			RFRM			RWRA			RWRB			RFIN			LASI			RASI			LPSI			RPSI			LTHI			LKNE			LTIB			LANK			LHEE			LTOE			RTHI			RKNE			RTIB			RANK			RHEE			RTOE			*39			*40			*41			
		X1	Y1	Z1	X2	Y2	Z2	X3	Y3	Z3	X4	Y4	Z4	X5	Y5	Z5	X6	Y6	Z6	X7	Y7	Z7	X8	Y8	Z8	X9	Y9	Z9	X10	Y10	Z10	X11	Y11	Z11	X12	Y12	Z12	X13	Y13	Z13	X14	Y14	Z14	X15	Y15	Z15	X16	Y16	Z16	X17	Y17	Z17	X18	Y18	Z18	X19	Y19	Z19	X20	Y20	Z20	X21	Y21	Z21	X22	Y22	Z22	X23	Y23	Z23	X24	Y24	Z24	X25	Y25	Z25	X26	Y26	Z26	X27	Y27	Z27	X28	Y28	Z28	X29	Y29	Z29	X30	Y30	Z30	X31	Y31	Z31	X32	Y32	Z32	X33	Y33	Z33	X34	Y34	Z34	X35	Y35	Z35	X36	Y36	Z36	X37	Y37	Z37	X38	Y38	Z38	X39	Y39	Z39	X40	Y40	Z40	X41	Y41	Z41	X42	Y42	Z42	

89	0.880	-966.39948	-239.07465	1714.80725	-1108.82031	-233.96448	1700.63965	-955.40741	-110.73453	1635.93005	-1097.89209	-93.48123	1620.53650	-1022.50311	-57.15163	1498.34387	-1042.62927	-3.24268	1224.47791	-1023.82782	-200.18443	1432.61804	-1038.31482	-249.47646	1260.25745	-1088.14294	5.78577	1326.26440	-851.82239	-146.36008	1472.93079	-759.14374	-181.88411	1285.71033	-735.97284	-227.49828	1149.44299	-758.91742	-330.00168	1063.24927	-829.67963	-443.63364	1029.94934	-792.77258	-424.29391	992.08301	-807.00360	-484.70062	970.74841	-1214.45435	-121.00822	1471.16846	-1298.97961	-47.83438	1296.88733	-1328.17590	-32.67753	1154.08875	-1356.53125	-29.08876	1035.27100	-1344.20532	-37.75245	897.06543	-1379.06873	5.04544	910.75122	-1378.34229	-4.74387	836.43427	-906.25104	-211.82460	961.58209	-1161.34924	-242.31123	955.14160	-1014.01263	-13.28652	1004.92169	-1125.33875	-21.22631	1004.08990	-870.83679	-75.60461	662.64178	-910.92163	2.50025	473.72269	-919.29871	110.98842	310.88000	-956.09735	164.70546	90.95969	-1010.40088	201.55121	70.57312	-932.63641	16.96851	32.60852	-1257.55212	-230.83218	659.13184	-1227.53748	-307.56897	465.67911	-1251.21460	-345.44827	285.53119	-1236.34338	-418.67474	101.95212	-1181.27283	-416.06647	36.49606	-1253.99255	-581.60541	110.67433	-1049.60779	-131.61981	1779.60693	-3360.46680	2845.29297	1034.27661			 
90	0.890	-966.56903	-252.23077	1712.26636	-1109.77710	-248.05669	1698.31348	-956.47791	-124.34492	1633.70972	-1099.17334	-107.42430	1618.40430	-1023.99744	-70.78896	1495.83508	-1044.64270	-17.44940	1221.91040	-1025.39807	-213.95399	1430.40979	-1039.92896	-263.54083	1258.27283	-1090.13940	-8.05011	1323.81348	-853.34320	-159.86719	1470.45166	-760.20050	-196.77631	1283.85144	-736.19086	-243.48920	1148.27209	-760.35950	-347.88190	1065.22510	-832.40088	-461.94662	1035.96460	-795.61530	-444.92868	997.47845	-810.50037	-505.91296	978.57727	-1216.16162	-134.47749	1469.02637	-1300.57886	-60.11664	1295.37646	-1329.56409	-43.40610	1152.98352	-1358.61609	-37.95589	1034.63354	-1348.16736	-45.36197	896.33380	-1381.65039	-1.36121	910.76721	-1381.85034	-10.33052	836.25824	-907.17511	-226.18640	959.74213	-1162.05615	-257.81937	953.34143	-1016.72821	-27.89427	1002.41516	-1128.13025	-36.73303	1001.74780	-871.51721	-86.94728	661.90106	-911.21252	-7.33104	473.93106	-919.55280	104.46204	313.40482	-955.72736	163.01346	94.45401	-1010.01929	200.26468	75.21690	-932.41418	16.84221	32.51204	-1258.60596	-246.32327	656.87659	-1228.58093	-325.74384	465.05530	-1252.92969	-364.26328	284.76385	-1237.39502	-437.39926	101.09780	-1182.35425	-433.94931	34.85197	-1251.10498	-600.96039	109.85350	-1050.50195	-145.75635	1777.26245	-3357.56152	2845.98047	1034.39575			 
91	0.900	-967.79865	-266.33136	1709.48596	-1110.72412	-262.20111	1696.15918	-957.98401	-137.95763	1631.71008	-1100.58716	-121.24584	1616.35938	-1025.43579	-84.18629	1493.51868	-1046.69092	-31.75624	1219.39063	-1027.05322	-227.73930	1428.46643	-1041.61877	-277.75565	1256.50806	-1091.87659	-22.01716	1321.16162	-854.99225	-173.25980	1468.18799	-761.35828	-210.84550	1282.29565	-736.51697	-259.09839	1147.23376	-761.52283	-366.02408	1067.38757	-834.81940	-479.30914	1041.82861	-797.83679	-463.56479	1002.56708	-813.47162	-525.36761	985.65955	-1217.75720	-147.95964	1467.18274	-1301.83826	-72.54280	1293.89856	-1331.14624	-54.66278	1152.00208	-1361.14551	-47.04716	1033.80713	-1352.08154	-53.30877	895.41547	-1384.17566	-8.85231	910.81653	-1385.51929	-16.86841	836.18103	-908.21655	-240.81602	957.92188	-1163.04980	-273.51999	951.92133	-1019.37793	-42.99723	1000.14935	-1130.94507	-52.43587	999.70386	-872.01978	-98.88585	661.14362	-911.31360	-18.16584	474.22339	-919.72614	97.36811	316.36362	-955.12976	161.18138	98.52595	-1009.32312	198.53682	80.58466	-932.19482	16.67381	32.42417	-1259.97900	-264.07645	655.78296	-1229.75171	-344.98837	464.80569	-1254.19910	-382.11377	283.63635	-1237.55017	-452.05225	99.03592	-1183.17395	-446.26794	32.78660	-1247.50085	-615.54767	105.68253	-1051.92834	-160.26053	1775.49207	-3358.18555	2845.66870	1034.37427			 
92	0.910	-968.83453	-280.32684	1707.07239	-1111.92456	-276.25742	1694.22852	-959.46356	-152.18768	1629.23047	-1102.10608	-135.13872	1614.79004	-1027.29529	-97.56813	1491.51953	-1048.76111	-46.19197	1217.06006	-1028.81738	-241.56848	1426.72339	-1043.52502	-292.14981	1255.09363	-1093.37964	-36.06372	1318.76257	-856.71088	-186.56403	1466.15125	-762.64093	-225.03879	1280.96582	-736.96680	-274.00043	1146.31677	-762.96478	-382.00058	1069.10193	-836.87494	-495.87640	1047.01196	-799.91425	-481.56680	1007.03589	-816.16309	-544.04742	992.63861	-1219.22864	-161.48091	1465.29724	-1303.38489	-85.29623	1292.48438	-1332.97314	-66.45301	1151.11230	-1363.54944	-57.20772	1033.32263	-1355.98279	-62.29439	894.75635	-1386.99011	-17.34147	910.96844	-1389.29309	-24.52017	836.30524	-909.47137	-255.96564	956.11523	-1164.46130	-289.78766	950.90881	-1021.82483	-58.70961	997.99072	-1133.69238	-68.35363	997.96173	-872.93915	-111.93547	660.74438	-911.39594	-30.09574	474.46176	-919.70441	89.35514	319.59775	-954.22412	158.85419	103.20913	-1007.94397	196.13258	86.67406	-931.77515	16.61205	32.37286	-1261.77747	-283.39767	655.72052	-1230.52539	-364.51740	464.19293	-1254.90430	-398.52948	282.15616	-1236.96863	-463.20068	95.98759	-1183.18884	-455.21463	29.79127	-1243.88611	-626.75616	99.26495	-1052.59827	-174.19179	1773.48535	-3355.34814	2846.69336	1034.57532			 
